<svg viewBox="0 0 355 406" preserveAspectRatio="xMidYMid meet" data-bbox="-0.5 -0.5 355 406" height="406" width="355" xmlns="http://www.w3.org/2000/svg" shape-rendering="geometricPrecision" text-rendering="geometricPrecision" image-rendering="optimizeQuality" fill-rule="evenodd" clip-rule="evenodd" data-type="ugc" role="img" aria-label="Elssy Hospital logo">
    <g>
        <path d="M-.5-.5h355v406H-.5z" fill="#fdfdfd"></path>
        <path d="M223.5 39.5a18.2 18.2 0 0 0-4 8q-4.019-.26-7-3l-2 1q1.033-4.637-4-6.5a416 416 0 0 1-36.5-8.5 3.94 3.94 0 0 0-2 1 433 433 0 0 1-11.5-4 3.65 3.65 0 0 0-1.5 1q-5.349-2.617-11.5-3.5 1.656-1.697-1-2.5-3.213 2.56-7 2.5l1-1q-.72-9.528-6-2-1.702 1.125-3-.5a25.6 25.6 0 0 0 6-6v-1a108.4 108.4 0 0 1 24-2q29.93-3.02 54 14.5 7.316 5.064 12 12.5" fill="#fb715f"></path>
        <path d="M133.5 14.5v1q-10.694 4.698-14 16-1.185 1.662-1.5 4-.75 21.995-.5 44v25h-61q1.711-2.614 5-3a787 787 0 0 0 55 1q-.25-35.004.5-70 2.393-2.888.5-6 1.346-.254 3-1 3.068-6.008 7-11z" fill="#fef4e3"></path>
        <path d="M133.5 15.5a25.6 25.6 0 0 1-6 6q1.298 1.625 3 .5 5.28-7.528 6 2l-1 1q3.787.06 7-2.5 2.656.803 1 2.5 6.151.883 11.5 3.5.621-.685 1.5-1a433 433 0 0 0 11.5 4 3.94 3.94 0 0 1 2-1 416 416 0 0 0 36.5 8.5q5.033 1.863 4 6.5l2-1q2.981 2.74 7 3 1.003-4.5 4-8 2.74 2.472 4 6 1.235 2.933.5 6a347 347 0 0 1-5 5q-39.201-8.895-79.5-18a11.5 11.5 0 0 1-2.5 1 30.5 30.5 0 0 0-8-3l-1 1q-6.081-1.83-10.5-6a8.4 8.4 0 0 1-.5 4q-.575-.834-1.5-1v-3q3.306-11.302 14-16" fill="#fc7d60"></path>
        <path d="M227.5 45.5q6.053 8.105 9 18a518 518 0 0 0-4 6 9.86 9.86 0 0 1-1-6h-4v5q-9.7-.36-18.5-4a6.3 6.3 0 0 0-3 1 49.3 49.3 0 0 1-14-6 4.94 4.94 0 0 1-2.5 1l-12-3q-5.31 1.984-9.5-2a3.94 3.94 0 0 1-2 1 371 371 0 0 1-37-9q-1.892.39-3 2a21.9 21.9 0 0 0-7-6 65 65 0 0 1 .5-9q.925.166 1.5 1a8.4 8.4 0 0 0 .5-4q4.419 4.17 10.5 6l1-1a30.5 30.5 0 0 1 8 3 11.5 11.5 0 0 0 2.5-1q40.299 9.105 79.5 18a347 347 0 0 0 5-5q.735-3.067-.5-6" fill="#fd8a62"></path>
        <path d="M119.5 31.5v3a65 65 0 0 0-.5 9 21.9 21.9 0 0 1 7 6q1.108-1.61 3-2a371 371 0 0 0 37 9 3.94 3.94 0 0 0 2-1q4.19 3.984 9.5 2l12 3a4.94 4.94 0 0 0 2.5-1 49.3 49.3 0 0 0 14 6 6.3 6.3 0 0 1 3-1q8.8 3.64 18.5 4v-5h4a9.86 9.86 0 0 0 1 6 518 518 0 0 1 4-6v1a40.5 40.5 0 0 0 2 12q-.555 3.25-2 6-2.2 4.137-2-1a4.93 4.93 0 0 0-3 .5l1 1a9.5 9.5 0 0 0-2.5 1.5q-5.031-1.627-9.5-6l-10 1q-1.422-4.822-4-1-2.433-2.908-5.5-1-1.806-1.455-1.5-3-4.603 1.203-8.5 0-3.961-.605-7-3a4.46 4.46 0 0 1-1.5 2 21.7 21.7 0 0 1-6.5-4q-4.47.128-9 1-1.791-3.038-4.5-1a15 15 0 0 1-3.5-3q-3.062-.215-6.5 1a15.7 15.7 0 0 0-4-2.5 77.7 77.7 0 0 1-16-4.5q-4.561 1.078-8.5-2-1.548 2.467-3.5 1-1.393 1.783-1 4-1.475 5.697-1 12v4h-1q-.25-22.005.5-44 .315-2.338 1.5-4" fill="#fd9763"></path>
        <path d="M236.5 82.5a21.3 21.3 0 0 1-1.5 9q-2.189-4.413-5-1a24.2 24.2 0 0 0-6.5-5 7.3 7.3 0 0 1-3 2q-2.407-1.395-4.5 0-6.64-2.615-12.5-5-3.474 4.39-4.5-1a4.46 4.46 0 0 1-1.5 2q-8.788-4.815-18-6a18 18 0 0 0-3.5 2l-1-3q-4.276 1.116-8 0a6.98 6.98 0 0 0-3.5-2.5q-5.884-1.19-11.5.5a4.93 4.93 0 0 1-.5-3q-2.435-.21-3.5 2-2.738-2.519-6.5-3.5a171 171 0 0 1-16.5-3.5q-.621.685-1.5 1-1.75-2.369-4-4-.393-2.217 1-4 1.952 1.467 3.5-1 3.939 3.078 8.5 2a77.7 77.7 0 0 0 16 4.5q2.2.953 4 2.5 3.438-1.215 6.5-1a15 15 0 0 0 3.5 3q2.709-2.038 4.5 1 4.53-.872 9-1a21.7 21.7 0 0 0 6.5 4 4.46 4.46 0 0 0 1.5-2q3.039 2.395 7 3 3.897 1.203 8.5 0-.306 1.545 1.5 3 3.067-1.908 5.5 1 2.578-3.822 4 1l10-1q4.469 4.373 9.5 6a9.5 9.5 0 0 1 2.5-1.5l-1-1a4.93 4.93 0 0 1 3-.5q-.2 5.137 2 1" fill="#fe9f64"></path>
        <path d="M119.5 63.5q2.25 1.631 4 4a3.65 3.65 0 0 0 1.5-1 171 171 0 0 0 16.5 3.5q3.762.981 6.5 3.5 1.065-2.21 3.5-2a4.93 4.93 0 0 0 .5 3q5.616-1.69 11.5-.5a6.98 6.98 0 0 1 3.5 2.5q3.724 1.116 8 0l1 3a18 18 0 0 1 3.5-2q9.212 1.185 18 6a4.46 4.46 0 0 0 1.5-2q1.026 5.39 4.5 1 5.86 2.385 12.5 5 2.093-1.395 4.5 0a7.3 7.3 0 0 0 3-2 24.2 24.2 0 0 1 6.5 5q2.811-3.413 5 1a21.3 21.3 0 0 0 1.5-9q1.445-2.75 2-6a40.5 40.5 0 0 1-2-12q1.453 3.244 2.5 7 .75 15.492.5 31h-1v-2a18.5 18.5 0 0 0-.5-6q-5.786.003-12.5 1v-3q-3.124-.042-5.5 2a12.5 12.5 0 0 1-4-5 4.46 4.46 0 0 1-1.5 2q-2-2-4 0-2.352-3.067-5.5-1a9.6 9.6 0 0 1-3-3q-5.656-.262-11.5 0-2-4-4 0-1.996-5.283-5.5-1-.893-5.373-4-1-2.258-4.46-5-1-2.269-3.685-4 0-4.56-2.445-9-5-1.418.608-2 2-2.094-3.04-5-1a7.3 7.3 0 0 1-2-3l-3 1q-2.066-5.648-3 1a26 26 0 0 0-3.5-5l-2 2-4-3a3.65 3.65 0 0 0-1.5 1q-6.012-1.343-12.5-4a112 112 0 0 1-2 5q-.475-6.303 1-12" fill="#fca465"></path>
        <path d="M238.5 100.5a637 637 0 0 0-42.5 1 18 18 0 0 0-3.5-2q-2.528 5.033-6 1a32 32 0 0 0 4-2.5q-4.315-1.087-8 1.5-10.486-4.395-22-4.5a42 42 0 0 1-7.5-3.5l-1 1a129.4 129.4 0 0 0-24.5-5 4.93 4.93 0 0 0-.5-3q-2.993 7.584-5 0l-1 2a275 275 0 0 1-2.5-7v-4q.995-2.313 2-5 6.488 2.657 12.5 4 .621-.685 1.5-1l4 3 2-2a26 26 0 0 1 3.5 5q.934-6.648 3-1l3-1a7.3 7.3 0 0 0 2 3q2.906-2.04 5 1 .582-1.392 2-2 4.44 2.555 9 5 1.731-3.685 4 0 2.742-3.46 5 1 3.107-4.373 4 1 3.504-4.283 5.5 1 2-4 4 0 5.844-.262 11.5 0a9.6 9.6 0 0 0 3 3q3.148-2.067 5.5 1 2-2 4 0a4.46 4.46 0 0 0 1.5-2 12.5 12.5 0 0 0 4 5q2.376-2.042 5.5-2v3q6.714-.997 12.5-1 .743 2.96.5 6" fill="#fdad66"></path>
        <path d="M118.5 79.5q1.146 3.36 2.5 7l1-2q2.007 7.584 5 0 .724 1.422.5 3a129.4 129.4 0 0 1 24.5 5l1-1a42 42 0 0 0 7.5 3.5q11.514.105 22 4.5 3.685-2.587 8-1.5a32 32 0 0 1-4 2.5q3.472 4.033 6-1a18 18 0 0 1 3.5 2 637 637 0 0 1 42.5-1v2a436 436 0 0 0-40 1q-6.212-1.104-12.5 1l-50-10q-6.061 2.772-9-3a32 32 0 0 0-2.5 4q-1.261-4.305-5-6.5a28.5 28.5 0 0 1-1-9.5" fill="#fdb866"></path>
        <path d="M117.5 79.5h1a28.5 28.5 0 0 0 1 9.5q3.739 2.195 5 6.5a32 32 0 0 1 2.5-4q2.939 5.772 9 3l50 10q6.288-2.104 12.5-1-3.703 1.225-8 1.5-1.129 1.006-1 2.5-4.427-.32-8 2-3.451.84-7 1.5-1.321 1.063-2 2.5a72.2 72.2 0 0 0-14 8q-1 0-1 1-5.28 1.28-8 6a85 85 0 0 0-16 15v1q-3.13 1.627-4 5h-1q.333-4.335-2-8 2.032-1.763-.5-3l-1 1a223 223 0 0 1-13.5-25q-1.246-3.156-1-6-6.834-4.09-15-3v-1h22z" fill="#fcc06a"></path>
        <path d="M238.5 102.5h1v1a233.7 233.7 0 0 0-45 2.5q-.834.575-1 1.5h-4q-.129-1.494 1-2.5 4.297-.275 8-1.5a436 436 0 0 1 40-1" fill="#c7ba78"></path>
        <path d="M239.5 103.5v1a204 204 0 0 0-46 3q.166-.925 1-1.5a233.7 233.7 0 0 1 45-2.5" fill="#2b78ab"></path>
        <path d="M94.5 105.5q2.309 3.043 6 4.5 2.835 7.436 6 16l4.5 4.5q.666 4.666 4 8a42.8 42.8 0 0 0 1.5 9q3.053-3.618 3 2-.555 3.25-2 6-3.459 1.927-5.5-2a20.6 20.6 0 0 1-2-6q-7.13-8.642-9.5-18.5l-4.5-4.5q-1.02-7.073-5.5-12.5l1-1a18.9 18.9 0 0 1-5-3q3.23-3.247 8-2.5" fill="#fda766"></path>
        <path d="M94.5 105.5h1q8.166-1.09 15 3-.246 2.844 1 6a223 223 0 0 0 13.5 25l1-1q2.532 1.237.5 3 2.333 3.665 2 8l-4 8q-2.769 2.295-3 6l-5 8q-.432-5.703 2-8.5a114 114 0 0 1-1-7.5q1.445-2.75 2-6 .053-5.618-3-2a42.8 42.8 0 0 1-1.5-9q-3.334-3.334-4-8l-4.5-4.5q-3.165-8.564-6-16-3.691-1.457-6-4.5" fill="#fbb368"></path>
        <path d="M239.5 104.5q13.793.28 26 6-5.13-1.966-10 .5-1.255 1.517-1 3.5-3.375-.478-6 1.5l7 1q-3.737.614-6 3.5a11.3 11.3 0 0 0-3.5-1 126.5 126.5 0 0 0-22.5 6l-2-.5q2.305-1.665 2-4.5-3.82 2.658-8 2.5a7.25 7.25 0 0 1 2 2.5 74 74 0 0 0-11 2.5l33 1q2.337.315 4 1.5-29.728-4.228-58 5.5-11.534 5.311-21 13.5.394-8.252 9-8.5-1.437-1.72 1-3a33.8 33.8 0 0 0-9-4.5l-3 4q3.197-.243 3 4h-8q.481-5.07-3-2.5 4.239 6.24-2 2.5-1.846 1.726 0 3.5-7.621 3.369-12 10.5a27.4 27.4 0 0 0-4-8l-2 3q-1.5-2-3 0-2.033 5.033-7 7l4-8h1q3.13-1.627 4-5v-1a85 85 0 0 0 16-15q4.505-2.529 8-6 0-1 1-1 17.208-8.376 35-14a204 204 0 0 1 46-3" fill="#1284ef"></path>
        <path d="M48.5 106.5q1.064-1.356 3-1h18q2.18 1.987-1 2.5.838 3.54 4 7 1.67 7.334 8 13-1.012 3.363 1.5 6.5a35 35 0 0 0 6.5 7.5q-.7 4.962 2.5 9.5 4.191 3.202 4.5 7.5 1.565 5.87 6.5 9.5 2.105 8.963 8.5 15.5a44 44 0 0 0-3 5.5 31 31 0 0 1 2 2v8h-1a65 65 0 0 1-2.5-5l-1 2q-2.056-4.307-6.5-6 1.566-3.402.5-7a199 199 0 0 1-6.5-11.5l1-1q-7.312-5.937-7.5-13.5-6.22-6.957-8.5-14.5-2.84-1.651-2-4a657 657 0 0 0-17-30l5-1a68.8 68.8 0 0 0-15-1.5" fill="#fd8161"></path>
        <path d="M265.5 110.5q14.83 3.91 26 14a51 51 0 0 0-7.5 2q-4.876-.898-10.5-.5-.929 2.636-3.5 3.5-5.046-5.859-9.5.5 6 2 0 4a29 29 0 0 1 5 3.5 210 210 0 0 0-22-7q-1.663-1.185-4-1.5l-33-1a74 74 0 0 1 11-2.5 7.25 7.25 0 0 0-2-2.5q4.18.158 8-2.5.305 2.835-2 4.5l2 .5a126.5 126.5 0 0 1 22.5-6 11.3 11.3 0 0 1 3.5 1q2.263-2.886 6-3.5l-7-1q2.625-1.978 6-1.5-.255-1.983 1-3.5 4.87-2.466 10-.5" fill="#177eee"></path>
        <path d="M48.5 106.5q7.578-.075 15 1.5l-5 1a657 657 0 0 1 17 30q-.84 2.349 2 4 2.28 7.543 8.5 14.5.188 7.563 7.5 13.5l-1 1a199 199 0 0 0 6.5 11.5q1.066 3.598-.5 7 4.444 1.693 6.5 6l1-2a65 65 0 0 0 2.5 5v19q-2.399-7.603-2.5-16a4.93 4.93 0 0 0-.5 3h-5l1-6q-6.99 1.873-5-5.5A254 254 0 0 1 82 172.5Q71.563 148.415 56.5 126l1-1a311 311 0 0 0-8-14.5q-2.318-1.428-5-1h-2q2.522-2.262 6-3" fill="#fd7560"></path>
        <path d="M181.5 109.5q-4.058 2.63-9 4 .679-1.437 2-2.5 3.549-.66 7-1.5" fill="#85aa7f"></path>
        <path d="M189.5 107.5h4q-17.792 5.624-35 14 6.5-4.754 14-8 4.942-1.37 9-4 3.573-2.32 8-2" fill="#3382b0"></path>
        <path d="M44.5 109.5q2.682-.428 5 1a311 311 0 0 1 8 14.5l-1 1q15.063 22.415 25.5 46.5A254 254 0 0 0 96.5 194q-1.99 7.373 5 5.5l-1 6h5a4.93 4.93 0 0 1 .5-3q.101 8.397 2.5 16-.418 7.259 2 14-13.773.49-27-1h2q9.393.663 18-3a26.7 26.7 0 0 0-7-1.5q3.905-11.755-5.5-19.5l-2-6A693 693 0 0 1 71.5 172l1-1q-3.605-.762-2-3.5-5.814-7.092-8.5-16a25.6 25.6 0 0 1-5.5-6.5l1-1a61 61 0 0 1-5.5-11.5q-3.633-3.9-5.5-9-1.427 1.238-3 .5 1.61-1.108 2-3a12.2 12.2 0 0 1-3-4l3-5a11 11 0 0 0-1-2.5" fill="#fc685e"></path>
        <path d="M157.5 122.5q-3.495 3.471-8 6 2.72-4.72 8-6" fill="#3a7396"></path>
        <path d="M85.5 230.5h-6v-3q2.405.282 4-1.5-5.025-1.525-4-6-7.708-9.557-11.5-21.5-10.296-12.582-16-28l-3.5-3.5q.685-.621 1-1.5a3105 3105 0 0 1-10.5-17 92 92 0 0 1-3-9q-5.235-5.47-5.5-13a69 69 0 0 1 2.5-6 26 26 0 0 0 3.5 5q4.224-4.136 2 1.5a33.6 33.6 0 0 0 9 12.5q-.475 7.959 6.5 13a76.6 76.6 0 0 0 4 11q5.112 4.473 7.5 11a3.65 3.65 0 0 1-1 1.5 137 137 0 0 0 7.5 10.5q1.299 8.301 7.5 13.5-.685.621-1 1.5a25.5 25.5 0 0 1 4.5 4q.925 1.423-.5 2.5a300 300 0 0 1 7.5 14.5 15.3 15.3 0 0 0 4.5 1.5 32.4 32.4 0 0 1-6 2.5q3.927 4.788-3 4" fill="#fc525b"></path>
        <path d="M51.5 105.5q2.128-1.426 5-1h39v1h-1q-4.77-.747-8 2.5a18.9 18.9 0 0 0 5 3l-1 1q4.48 5.427 5.5 12.5l4.5 4.5q2.37 9.858 9.5 18.5a20.6 20.6 0 0 0 2 6q2.041 3.927 5.5 2 .374 3.753 1 7.5-2.432 2.797-2 8.5l-1 4v3a11.45 11.45 0 0 0-3 5q-.64-4.932 2-9-3.373-2.451-1-6-1.003-3.792-2.5 0-5.73-7.776-8.5-16-14.607-23.613-25-45.5l2-1a50.5 50.5 0 0 0-10-.5z" fill="#fc9b66"></path>
        <path d="M243.5 130.5a210 210 0 0 1 22 7q8.492 5.99 17 12a10660 10660 0 0 1 14 17 145 145 0 0 1 10 25v5h-168q-1.401-1.602-1-4 7.019-25.531 27-43 9.466-8.189 21-13.5 28.272-9.728 58-5.5" fill="#fafbfc"></path>
        <path d="M291.5 124.5q9.34 5.333 16 14-2.436-.21-3.5 2a3.65 3.65 0 0 0-1.5-1q-7.219 6.183-11-3 1.059-5.669-3-.5 1.87 2.241 0 4.5-2.194-9.058-4-.5.353 1.31 1 2.5a34.3 34.3 0 0 1-8 1.5q1.349 1.854 3.5 2.5 6.263-.238 10-5a112 112 0 0 0 8.5 4q2.294-.044 3.5-2 .743 2.96.5 6a9.1 9.1 0 0 0-5 1q-3-2-5-5-2.675 1.272-1.5 4a31.2 31.2 0 0 1 4.5 6l-1.5 1q-3.785-4.668-9-8-1.517 1.255-3.5 1-8.508-6.01-17-12a29 29 0 0 0-5-3.5q6-2 0-4 4.454-6.359 9.5-.5 2.571-.864 3.5-3.5 5.624-.398 10.5.5a51 51 0 0 1 7.5-2" fill="#1d77ec"></path>
        <path d="M69.5 105.5q5.025-.247 10 .5l-2 1q10.393 21.887 25 45.5 2.77 8.224 8.5 16 1.497-3.792 2.5 0-2.373 3.549 1 6-2.64 4.068-2 9a46.7 46.7 0 0 0-3 8 31 31 0 0 0-2-2 44 44 0 0 1 3-5.5q-6.395-6.537-8.5-15.5-4.935-3.63-6.5-9.5-.309-4.298-4.5-7.5-3.2-4.538-2.5-9.5a35 35 0 0 1-6.5-7.5q-2.512-3.137-1.5-6.5-6.33-5.666-8-13-3.162-3.46-4-7 3.18-.513 1-2.5" fill="#fd9063"></path>
        <path d="M149.5 128.5a85 85 0 0 1-16 15 85 85 0 0 1 16-15" fill="#2d73a1"></path>
        <path d="M29.5 126.5h1q.264 7.53 5.5 13a92 92 0 0 0 3 9 3105 3105 0 0 0 10.5 17 3.65 3.65 0 0 1-1 1.5l3.5 3.5q5.703 15.418 16 28 3.792 11.943 11.5 21.5-1.025 4.475 4 6-1.595 1.782-4 1.5v3h6v1h-2q-12.701-1.065-23-8 3.07.016 6 1 2.41-.206 4-2a28.5 28.5 0 0 1-4.5-9q-4.327-1.672-8.5-5.5a818 818 0 0 0-10-19q-2.57-6.272-7.5-12.5a113.4 113.4 0 0 0-9-18 132.5 132.5 0 0 0 0 23q1.257 5.036 4.5 9a9.1 9.1 0 0 0-1 5q-4.045-7.381-5.5-16-1.243-26.757.5-53" fill="#fa415a"></path>
        <path d="M133.5 144.5q-.87 3.373-4 5 .87-3.373 4-5" fill="#4a798a"></path>
        <path d="M164.5 149.5q-19.981 17.469-27 43a310 310 0 0 1 6.5-23q-5.766-2.607-10 2-6.92-.468-11-6-1.006 1.129-2.5 1a5.73 5.73 0 0 0 1-3q.231-3.705 3-6 4.967-1.967 7-7 1.5-2 3 0l2-3a27.4 27.4 0 0 1 4 8q4.379-7.131 12-10.5-1.846-1.774 0-3.5 6.239 3.74 2-2.5 3.481-2.57 3 2.5h8q.197-4.243-3-4l3-4a33.8 33.8 0 0 1 9 4.5q-2.437 1.28-1 3-8.606.248-9 8.5" fill="#187ded"></path>
        <path d="M307.5 138.5a61.8 61.8 0 0 1 13 19q-3.59-1.279-4-5h-3q.715 3.74 4 6a28.7 28.7 0 0 1-5 1 47 47 0 0 0-7.5-4q-2.768 2.775-6 1a76 76 0 0 0-2.5 10 10660 10660 0 0 0-14-17q1.983.255 3.5-1 5.215 3.332 9 8l1.5-1a31.2 31.2 0 0 0-4.5-6q-1.175-2.728 1.5-4 2 3 5 5a9.1 9.1 0 0 1 5-1 18.5 18.5 0 0 0-.5-6q-1.206 1.956-3.5 2a112 112 0 0 1-8.5-4q-3.737 4.762-10 5-2.151-.646-3.5-2.5a34.3 34.3 0 0 0 8-1.5 11.5 11.5 0 0 1-1-2.5q1.806-8.558 4 .5 1.87-2.259 0-4.5 4.059-5.169 3 .5 3.781 9.183 11 3a3.65 3.65 0 0 1 1.5 1q1.064-2.21 3.5-2" fill="#2270ea"></path>
        <path d="M60.5 223.5q-17.664-9.664-26-28a9.1 9.1 0 0 1 1-5q-3.243-3.964-4.5-9a132.5 132.5 0 0 1 0-23 113.4 113.4 0 0 1 9 18q4.93 6.228 7.5 12.5a818 818 0 0 1 10 19q4.173 3.828 8.5 5.5a28.5 28.5 0 0 0 4.5 9q-1.59 1.794-4 2a19 19 0 0 0-6-1" fill="#fb3358"></path>
        <path d="M121.5 163.5a5.73 5.73 0 0 1-1 3 57.4 57.4 0 0 0-2 9h-3l1-4z" fill="#4073a9"></path>
        <path d="M320.5 157.5q11.781 21.35 13 46-.003 5.277-1 10a91.4 91.4 0 0 0-2.5-26q-.324 2.826-2 5a210 210 0 0 0-3.5-11l-2 10a45.3 45.3 0 0 0-2.5-8q-.979 4.96-5 8-1.278-4.315-3.5-8-3.901 5.539 2 9.5-.681 2.433-3 3.5-.694-4.624-3.5-8a4.93 4.93 0 0 0-.5 3 145 145 0 0 0-10-25 76 76 0 0 1 2.5-10q3.232 1.775 6-1a47 47 0 0 1 7.5 4 28.7 28.7 0 0 0 5-1q-3.285-2.26-4-6h3q.41 3.721 4 5" fill="#2a68e9"></path>
        <path d="M42.5 109.5h2q.635 1.147 1 2.5l-3 5a12.2 12.2 0 0 0 3 4q-.39 1.892-2 3 1.573.738 3-.5 1.867 5.1 5.5 9a61 61 0 0 0 5.5 11.5l-1 1a25.6 25.6 0 0 0 5.5 6.5q2.686 8.908 8.5 16-1.605 2.738 2 3.5l-1 1A693 693 0 0 0 89 201.5l2 6q9.405 7.745 5.5 19.5 3.6.279 7 1.5-8.607 3.663-18 3v-1q6.927.788 3-4a32.4 32.4 0 0 0 6-2.5 15.3 15.3 0 0 1-4.5-1.5 300 300 0 0 0-7.5-14.5q1.425-1.077.5-2.5a25.5 25.5 0 0 0-4.5-4 3.65 3.65 0 0 1 1-1.5q-6.201-5.199-7.5-13.5a137 137 0 0 1-7.5-10.5q.685-.621 1-1.5-2.388-6.527-7.5-11a76.6 76.6 0 0 1-4-11q-6.975-5.041-6.5-13a33.6 33.6 0 0 1-9-12.5q2.224-5.636-2-1.5a26 26 0 0 1-3.5-5 69 69 0 0 0-2.5 6h-1q2.575-11.565 13-17" fill="#fc5e5d"></path>
        <path d="M137.5 192.5q-.401 2.398 1 4 42.246 1.248 85 1.5-19.994.75-40 .5-12.51-.25-25 .5 6.528.629 1 2-13.491.75-27 .5-.32-2.466 1-4.5-1.53-2.334-4-3.5-3.524 1.388.5 3 1 2 0 4-1.293 3.332-3.5 3.5.195 1.588 1.5 2.5 2.377-2.042 5.5-2v4a80 80 0 0 0-18 0q-3.819-.528-5-4a404 404 0 0 1 5-26v-3h3a57.4 57.4 0 0 1 2-9q1.494.129 2.5-1 4.08 5.532 11 6 4.234-4.607 10-2a310 310 0 0 0-6.5 23" fill="#2073ed"></path>
        <path d="M112.5 183.5a105 105 0 0 0-1 9l-2 5v-6a46.7 46.7 0 0 1 3-8" fill="#c79976"></path>
        <path d="M332.5 213.5q-1.554 6.554-8 8-43.066.488-86-1-2.856 1.135-1 3a43 43 0 0 0 1.5 5q1.245 40.254-.5 80 .25-39.503-.5-79l-1 27a558 558 0 0 1-2-20q-5.238 3.887-2.5 10-8.666.614-12.5 8-2.804-8.442-3.5-17 .426-2.872-1-5-.852-5.351-6-7-.166-.925-1-1.5l-9-1q7.832-.814 0-2.5a34.3 34.3 0 0 1 8-1.5q-3.644-.677-.5-2.5 5.86 1.325 11 0 4.023-.851 6.5-4a4.46 4.46 0 0 1 2 1.5q.786 1.684 0 4 .763 1.753 2.5 2.5a47 47 0 0 0 3.5-5.5 86.8 86.8 0 0 1 23-4.5 302 302 0 0 0-14-2q-1.581.27-3 1-1.656-1.697 1-2.5 8.826.087 17-2.5l8 2q3.071-2.273 7-2.5-6-1 0-2 6.38-.3 12.5-1.5 1.37 1.73 2.5-.5-7.414.394-15-1 17.993-.75 36-.5.452-3.839-1-7a4.93 4.93 0 0 1 .5-3q2.806 3.376 3.5 8 2.319-1.067 3-3.5-5.901-3.961-2-9.5 2.222 3.685 3.5 8 4.021-3.04 5-8a45.3 45.3 0 0 1 2.5 8l2-10a210 210 0 0 1 3.5 11q1.676-2.174 2-5a91.4 91.4 0 0 1 2.5 26" fill="#3861e9"></path>
        <path d="M306.5 191.5q1.452 3.161 1 7-18.007-.25-36 .5 7.586 1.394 15 1-1.13 2.23-2.5.5-6.12 1.2-12.5 1.5-6 1 0 2-3.929.227-7 2.5l-8-2q-8.174 2.587-17 2.5-2.656.803-1 2.5 1.419-.73 3-1a302 302 0 0 1 14 2 86.8 86.8 0 0 0-23 4.5 47 47 0 0 1-3.5 5.5q-1.737-.747-2.5-2.5.786-2.316 0-4a4.46 4.46 0 0 0-2-1.5q-2.477 3.149-6.5 4-5.14 1.325-11 0-3.144 1.823.5 2.5a34.3 34.3 0 0 0-8 1.5q7.832 1.686 0 2.5l9 1q.834.575 1 1.5-37.514-.5-75 1 2.238 7.455 4 15-1.494.129-2.5-1-.254 6.34-5 10-1.418-.608-2-2l-1 1a127 127 0 0 1-.5-7.5q.794-3.643 4-5.5-4.038-1.4-7 0l2 4q-1.628 4.91-.5 10 7.494 5.642-2.5 5.5-1.446 3.97 1.5 7.5 1.37-1.73 2.5.5a3.65 3.65 0 0 0-1 1.5 16.1 16.1 0 0 1 2 5q-12.346-17-16-38v-11q25.935-1.998 50-12a3.65 3.65 0 0 0-1-1.5 20.6 20.6 0 0 1 6-2q10.448.663 21.5.5 2.559-1.212 2.5-4a4.93 4.93 0 0 0 3-.5l-5-1 2-1q-4.297-.274-8-1.5 20.006.25 40-.5a3596 3596 0 0 1-85-1.5h168z" fill="#2a65e6"></path>
        <path d="M111.5 192.5a32.5 32.5 0 0 1-.5 8q-.575.834-1.5 1v-4z" fill="#466581"></path>
        <path d="M115.5 178.5a404 404 0 0 0-5 26 64 64 0 0 0 2 17v11h-1a167 167 0 0 1-2-31q.925-.166 1.5-1 .746-3.97.5-8 .306-4.527 1-9a11.45 11.45 0 0 1 3-5" fill="#3763ad"></path>
        <path d="M183.5 198.5q3.703 1.226 8 1.5l-2 1 5 1a4.93 4.93 0 0 1-3 .5q.059 2.788-2.5 4a276 276 0 0 1-21.5-.5 20.6 20.6 0 0 0-6 2q.686.621 1 1.5-24.065 10.002-50 12a64 64 0 0 1-2-17q1.181 3.472 5 4a80 80 0 0 1 18 0v-4q-3.123-.042-5.5 2-1.305-.912-1.5-2.5 2.207-.168 3.5-3.5 1-2 0-4-4.024-1.612-.5-3 2.47 1.166 4 3.5-1.32 2.034-1 4.5 13.509.25 27-.5 5.528-1.371-1-2 12.49-.75 25-.5" fill="#256ded"></path>
        <path d="M326.5 196.5h3a417 417 0 0 0-2 18 4.93 4.93 0 0 1 3 .5 11.3 11.3 0 0 0-3.5 1.5q-1.517-1.255-3.5-1v4q-34.954 1.734-76 .5 31.958-.413 64-2a51.7 51.7 0 0 1-9.5-1.5q-3.4 2.153-6-1-4.61 1.676-9.5.5a15.3 15.3 0 0 0 1.5-4.5q3.112.951 6.5 1a499 499 0 0 0 25-2l-33-2a3.65 3.65 0 0 1 1-1.5q10.218.378 20 .5 2.748-11.58 4 0 4.642-.19 5.5-5 2.16 9.692 3 0a22.1 22.1 0 0 1 4.5 7 146 146 0 0 0 2-13" fill="#355bea"></path>
        <path d="m324.5 221.5-87 2q-1.856-1.865 1-3 42.934 1.488 86 1" fill="#4863b9"></path>
        <path d="M108.5 199.5h1v2a167 167 0 0 0 2 31h-1q-2.418-6.741-2-14z" fill="#c97b6f"></path>
        <path d="M209.5 225.5q5.148 1.649 6 7v66h-5q-3.507-2.31-8-2-12.894-2.22-24-9a130.6 130.6 0 0 1-21-16 230 230 0 0 1-10.5-14 186 186 0 0 1-8.5-16 249 249 0 0 0-4-15q37.486-1.5 75-1" fill="#fbfcfc"></path>
        <path d="M238.5 308.5q.356 1.937-1 3 .25-16.008-.5-32-1.461 3.567-2-1a99 99 0 0 0-2.5 9q-1.393-1.783-1-4-4.341.687-7.5-2a20.2 20.2 0 0 1-4 6q-1.026-1.926.5-3.5a4.93 4.93 0 0 0-3-.5q.46 4.328-1 8v-54q.696 8.558 3.5 17 3.834-7.386 12.5-8-2.738-6.113 2.5-10a558 558 0 0 0 2 20l1-27q.75 39.497.5 79" fill="#3b4fe2"></path>
        <path d="M138.5 241.5a186 186 0 0 0 8.5 16 230 230 0 0 0 10.5 14 59 59 0 0 1-7-2.5l1-1q-2.384-2.315-4 0 1.81 1.95 2 4.5h-4v-5q-1.983.255-3.5-1-1.03 4.389-5.5 4-1.161 5.613 4 7.5a9.5 9.5 0 0 0-1.5 2.5q-1.71-3.777-3.5 0-4.657-4.162-7-10a16.1 16.1 0 0 0-2-5 3.65 3.65 0 0 1 1-1.5q-1.13-2.23-2.5-.5-2.946-3.53-1.5-7.5 9.994.142 2.5-5.5-1.128-5.09.5-10l-2-4q2.962-1.4 7 0-3.206 1.857-4 5.5.119 3.457.5 7.5l1-1q.582 1.392 2 2 4.746-3.66 5-10 1.006 1.129 2.5 1" fill="#3759e5"></path>
        <path d="M157.5 271.5a130.6 130.6 0 0 0 21 16q-5.356-.13-7.5-3-9.89 7.038-4.5-2-1.752-2.576-5-2 1.875 3.702-.5 7-3.268-1.142-6.5 1 2.318 1.428 5 1 .321 5.636-3 2-2.5 1.5-4 4 1.337 1.635 3 0a10.3 10.3 0 0 1 1.5 4q4.707 1.962 7.5 6a90.4 90.4 0 0 1-18-12.5q-6.37-5.613-11-12.5 1.79-3.777 3.5 0a9.5 9.5 0 0 1 1.5-2.5q-5.161-1.887-4-7.5 4.47.389 5.5-4 1.517 1.255 3.5 1v5h4q-.19-2.55-2-4.5 1.616-2.315 4 0l-1 1a59 59 0 0 0 7 2.5" fill="#3c52e3"></path>
        <path d="M215.5 232.5q1.426 2.128 1 5v62q-2.398.401-4-1h3z" fill="#5e6cd9"></path>
        <path d="M178.5 287.5q11.106 6.78 24 9l4 2a25 25 0 0 0-7 .5q-3.523 3.555-8 1.5a7.25 7.25 0 0 1 2-2.5q-6.132-6.348-15-5 .686.621 1 1.5l-4 2a26 26 0 0 1 4.5 4 58 58 0 0 0 6.5-3l2 1a30.3 30.3 0 0 1-8.5 5q-5.654-4.555-6.5 3a15.7 15.7 0 0 0 2 4q4.398-.844 8.5 2 .677-3.644 2.5-.5a7.3 7.3 0 0 1-3 2l8 1-2 1q5.433-.13 9 3.5-18.462-3.74-34-14-2.793-4.038-7.5-6a10.3 10.3 0 0 0-1.5-4q-1.663 1.635-3 0 1.5-2.5 4-4 3.321 3.636 3-2-2.682.428-5-1 3.232-2.142 6.5-1 2.375-3.298.5-7 3.248-.576 5 2-5.39 9.038 4.5 2 2.144 2.87 7.5 3" fill="#424be2"></path>
        <path d="M237.5 311.5q-1.782 9.03-11 10.5-14.311 1.482-28-2.5-3.567-3.63-9-3.5l2-1-8-1a7.3 7.3 0 0 0 3-2q-1.823-3.144-2.5.5-4.102-2.844-8.5-2a15.7 15.7 0 0 1-2-4q.846-7.555 6.5-3a30.3 30.3 0 0 0 8.5-5l-2-1a58 58 0 0 1-6.5 3 26 26 0 0 0-4.5-4l4-2a3.65 3.65 0 0 0-1-1.5q8.868-1.348 15 5a7.25 7.25 0 0 0-2 2.5q4.477 2.055 8-1.5a25 25 0 0 1 7-.5h6q1.602 1.401 4 1v-8q1.46-3.672 1-8a4.93 4.93 0 0 1 3 .5q-1.526 1.574-.5 3.5a20.2 20.2 0 0 0 4-6q3.159 2.687 7.5 2-.393 2.217 1 4a99 99 0 0 1 2.5-9q.539 4.567 2 1 .75 15.992.5 32" fill="#4945e2"></path>
        <path d="M202.5 296.5q4.493-.31 8 2h-4z" fill="#adadf2"></path>
        <path d="M217.5 368.5q-4 6.5 0 13-.925.166-1.5 1-2.475-4.69-5.5-1-1.724 5.254-7.5 5-6.21-.473-10.5-5a4.46 4.46 0 0 0-1.5 2q-1.006-1.129-2.5-1l4-23q-2.682-.428-5 1l-2 8a31.1 31.1 0 0 1-11 1q.81-5.047 2-10 3.978.075 3 3 .5 1.5 2 2 4.059-3.036 4-8a41 41 0 0 1 9 .5q2.41 1.573 2 4.5a41 41 0 0 1 13 1.5 13 13 0 0 1 4 4.5q1.783 1.393 4 1" fill="#d8dfd9"></path>
        <path d="M135.5 359.5v4q-4.422-.416-8.5 1a317 317 0 0 0-3.5 19h-5q1.497-9.99 3-20-3.839.452-7-1v-3z" fill="#0b2514"></path>
        <path d="M248.5 357.5a294 294 0 0 0-4 26 18.5 18.5 0 0 1-6-.5 223 223 0 0 0 4-20.5 20.7 20.7 0 0 0 1-5z" fill="#0a2714"></path>
        <path d="M170.5 361.5a638 638 0 0 1-4 22h6q.174-5.04 1-10h11a29.4 29.4 0 0 1-2 9q3.204 1.94 6 0 1.494-.129 2.5 1a4.46 4.46 0 0 1 1.5-2q4.29 4.527 10.5 5 5.776.254 7.5-5 3.025-3.69 5.5 1 .575-.834 1.5-1 2.679 1.833 6 2 4.897-1.102 10 0a188 188 0 0 0 3-19 44 44 0 0 1 2 3q1.483-3.13 4-5a223 223 0 0 1-4 20.5q2.96.743 6 .5a294 294 0 0 1 4-26q.57-.95 1-2a10.8 10.8 0 0 0 3 2.5 206 206 0 0 0-4.5 27.5 6.98 6.98 0 0 1-3.5 2.5q-8.045.396-16 1.5-7.26-.261-14.5-3a63 63 0 0 1-10.5 3 79 79 0 0 1-12-3q-10.298 3.655-12.5-7a30.2 30.2 0 0 0-7 6q-3.18 1.439-6.5.5-1.704-12.695 2.5-25.5l1-1q.417 1.374 1.5 2" fill="#e6e8e6"></path>
        <path d="M176.5 359.5a133 133 0 0 0-2 10 31.1 31.1 0 0 0 11-1l2-8q2.318-1.428 5-1l-4 23q-2.796 1.94-6 0a29.4 29.4 0 0 0 2-9h-11a77 77 0 0 0-1 10h-6a638 638 0 0 0 4-22q2.127-2.712 6-2" fill="#0a2714"></path>
        <path d="M236.5 364.5a188 188 0 0 1-3 19q-5.103-1.102-10 0-3.321-.167-6-2-4-6.5 0-13 5.892-6.44 13.5-2 2.101-2.538 5.5-2" fill="#082613"></path>
        <path d="M224.5 368.5q9.05.87 4.5 9-6.387 4.621-8.5-3 1.27-3.556 4-6" fill="#c7cec7"></path>
        <path d="M210.5 381.5q-17.035 7.128-15.5-11 7.007-9.918 17-3 1.878 3.77 1.5 8a49.9 49.9 0 0 0-14 1q3.884 5.283 9 1 1.808 1.615 2 4" fill="#0b2313"></path>
        <path d="M201.5 369.5a18.5 18.5 0 0 1 6 .5q.686.621 1 1.5-4.419 1.732-9 .5 1.321-1.062 2-2.5" fill="#bbc8bc"></path>
        <path d="M127.5 383.5q1.62-7.449 3-15a3.65 3.65 0 0 0 1.5-1 112 112 0 0 1 2.5 14q8.565 6.697 18 1.5-1.129-1.006-1-2.5 8.862-18.67-12-15-3.008-1.131-2-3.5-.85-1.492-2-2.5h-21v3q-1.401 1.602-1 4 3.135-.075 4 3-.791 2.754-2 5 .612-4.649-3.5-7l-.5-3q.986-2.958 0-5.5 1.314-2.377 4-3 6.93-1.212 13.5-1.5 9.069 3.144 16.5 7a10.3 10.3 0 0 0 3-1q3.015 2.507 7 2 .255 1.983-1 3.5 1.75.75 2.5 2.5 3.93 24.043-19.5 19.5-4.614-1.366-7-5.5a5.6 5.6 0 0 1-3 1" fill="#eff0ef"></path>
        <path d="M151.5 380.5q-7.8 5.799-15.5 0-3.985-8.871 3.5-15 20.862-3.67 12 15" fill="#0a2413"></path>
        <path d="M143.5 368.5q9.05.87 4.5 9-6.092 4.467-8.5-2.5.334-4.443 4-6.5" fill="#c0cbc3"></path>
        <path d="M135.5 359.5q1.15 1.008 2 2.5-1.008 2.369 2 3.5-7.485 6.129-3.5 15 7.7 5.799 15.5 0-.129 1.494 1 2.5-9.435 5.197-18-1.5a112 112 0 0 0-2.5-14 3.65 3.65 0 0 1-1.5 1 458 458 0 0 1-3 15q-4.056 4.205-10 2.5-2.436-1.676-3-4.5a21.3 21.3 0 0 0 1-7q1.209-2.246 2-5-.865-3.075-4-3-.401-2.398 1-4 3.161 1.452 7 1-1.503 10.01-3 20h5a317 317 0 0 1 3.5-19q4.078-1.416 8.5-1z" fill="#dce1dd"></path>
    </g>
</svg>
